<svg xmlns="http://www.w3.org/2000/svg" width="19" height="16" viewBox="0 0 19 16">

  <path d="M405.788,892.458a1.251,1.251,0,0,0-1.049-.507h-1.675v-1.834a1.279,1.279,0,0,0-1.273-1.282h-5.87a1.188,1.188,0,0,1-.787-0.4l-0.439-.605a2.186,2.186,0,0,0-1.62-.828h-2.034a1.654,1.654,0,0,0-1.5,1.065l-0.14.4a0.641,0.641,0,0,1-.522.372h-0.61A1.279,1.279,0,0,0,387,890.117v11.574a0.53,0.53,0,0,0,.03.174,1.18,1.18,0,0,0,.211.628,1.253,1.253,0,0,0,1.049.507h12.968a2.082,2.082,0,0,0,1.86-1.329l2.8-8.048A1.274,1.274,0,0,0,405.788,892.458Zm-17.515-2.583h0.61a1.654,1.654,0,0,0,1.5-1.065l0.14-.4a0.643,0.643,0,0,1,.523-0.372h2.034a1.188,1.188,0,0,1,.787.4l0.439,0.605a2.184,2.184,0,0,0,1.62.829h5.87a0.245,0.245,0,0,1,.241.242v1.834H391.771a2.081,2.081,0,0,0-1.86,1.328l-1.879,5.4v-8.565A0.245,0.245,0,0,1,388.273,889.875Zm16.67,3.4-2.8,8.049a1.051,1.051,0,0,1-.886.633H388.29a0.26,0.26,0,0,1-.208-0.069,0.267,0.267,0,0,1,0-.221l2.8-8.048a1.049,1.049,0,0,1,.886-0.633h12.968A0.185,0.185,0,0,1,404.943,893.279Z" transform="translate(-387 -887)"/>
</svg>
