<?xml version="1.0" encoding="iso-8859-1"?>
<!-- Generator: Adobe Illustrator 19.0.0, SVG Export Plug-In . SVG Version: 6.00 Build 0)  -->
<svg version="1.1" id="Layer_1" xmlns="http://www.w3.org/2000/svg" xmlns:xlink="http://www.w3.org/1999/xlink" x="0px" y="0px"
	 viewBox="0 0 512 512" style="enable-background:new 0 0 512 512;" xml:space="preserve">
<g>
	<g>
		<path d="M501.333,448H64v-48.917L167.624,295.46c4.172,1.996,8.784,3.207,13.71,3.207c7.174,0,13.733-2.458,19.076-6.461
			l77.999,51.993c-0.635,2.51-1.074,5.095-1.074,7.801c0,17.646,14.354,32,32,32c17.646,0,32-14.354,32-32
			c0-4.057-0.836-7.905-2.219-11.48l103.71-88.885c4.691,2.701,10.052,4.366,15.842,4.366c17.646,0,32-14.354,32-32
			s-14.354-32-32-32s-32,14.354-32,32c0,4.057,0.836,7.905,2.219,11.48l-103.71,88.885c-4.691-2.701-10.052-4.366-15.842-4.366
			c-7.174,0-13.733,2.458-19.076,6.461l-77.999-51.993c0.635-2.51,1.074-5.095,1.074-7.801c0-17.646-14.354-32-32-32
			c-17.646,0-32,14.354-32,32c0,4.926,1.211,9.538,3.207,13.71L64,368.917v-77.535l108.73-154.038
			c2.755,0.775,5.603,1.323,8.603,1.323c11.122,0,20.915-5.716,26.652-14.352l69.658,17.423
			c1.572,16.188,15.096,28.928,31.69,28.928c17.646,0,32-14.354,32-32c0-1.943-0.24-3.826-0.573-5.673l97.145-55.512
			c5.604,4.826,12.802,7.852,20.762,7.852c17.646,0,32-14.354,32-32c0-17.646-14.354-32-32-32s-32,14.354-32,32
			c0,1.943,0.24,3.826,0.573,5.673l-97.145,55.512c-5.604-4.826-12.802-7.852-20.762-7.852c-11.122,0-20.915,5.716-26.652,14.352
			l-69.658-17.423c-1.572-16.188-15.096-28.928-31.69-28.928c-17.646,0-32,14.354-32,32c0,6.876,2.227,13.214,5.931,18.435
			L64,254.396V10.667C64,4.771,59.229,0,53.333,0c-5.896,0-10.667,4.771-10.667,10.667V448h-32C4.771,448,0,452.771,0,458.667
			s4.771,10.667,10.667,10.667h32v32c0,5.896,4.771,10.667,10.667,10.667C59.229,512,64,507.229,64,501.333v-32h437.333
			c5.896,0,10.667-4.771,10.667-10.667S507.229,448,501.333,448z M458.667,213.333c5.875,0,10.667,4.781,10.667,10.667
			s-4.792,10.667-10.667,10.667c-2.892,0-5.508-1.177-7.432-3.056c-0.188-0.264-0.249-0.578-0.464-0.829
			c-0.094-0.108-0.227-0.147-0.323-0.251c-1.449-1.822-2.448-4.026-2.448-6.53C448,218.115,452.792,213.333,458.667,213.333z
			 M300.184,346.85c0.176-0.223,0.448-0.309,0.608-0.548c0.188-0.281,0.211-0.608,0.368-0.9c1.958-2.422,4.827-4.069,8.173-4.069
			c2.892,0,5.508,1.177,7.432,3.056c0.188,0.264,0.249,0.578,0.464,0.829c0.089,0.103,0.22,0.134,0.311,0.233
			c1.457,1.824,2.46,4.036,2.46,6.548c0,5.885-4.792,10.667-10.667,10.667s-10.667-4.781-10.667-10.667
			C298.667,350.095,299.305,348.4,300.184,346.85z M181.333,256c5.875,0,10.667,4.781,10.667,10.667
			c0,1.833-0.585,3.475-1.402,4.983c-0.22,0.267-0.526,0.422-0.723,0.715c-0.188,0.281-0.211,0.608-0.368,0.9
			c-1.957,2.422-4.827,4.069-8.173,4.069c-5.875,0-10.667-4.781-10.667-10.667C170.667,260.781,175.458,256,181.333,256z
			 M458.667,42.667c5.875,0,10.667,4.781,10.667,10.667c0,5.885-4.792,10.667-10.667,10.667c-3.721,0-6.849-2.033-8.758-4.935
			c-0.096-0.197-0.091-0.414-0.201-0.607c-0.228-0.398-0.6-0.633-0.87-0.99c-0.538-1.272-0.839-2.669-0.839-4.135
			C448,47.448,452.792,42.667,458.667,42.667z M299.079,136.629c0.056-0.182,0.249-0.264,0.296-0.452
			c0.108-0.435,0.005-0.855,0.057-1.289c1.536-4.01,5.363-6.888,9.901-6.888c3.72,0,6.846,2.033,8.757,4.934
			c0.096,0.197,0.091,0.414,0.202,0.608c0.159,0.277,0.462,0.383,0.642,0.639c0.647,1.374,1.066,2.869,1.066,4.486
			c0,5.885-4.792,10.667-10.667,10.667s-10.667-4.781-10.667-10.667C298.667,137.944,298.941,137.311,299.079,136.629z M181.333,96
			c5.875,0,10.667,4.781,10.667,10.667c0,0.62-0.251,1.155-0.353,1.746c-0.09,0.267-0.286,0.466-0.355,0.743
			c-0.108,0.438-0.005,0.861-0.057,1.297c-1.539,4.007-5.366,6.88-9.901,6.88c-5.875,0-10.667-4.781-10.667-10.667
			C170.667,100.781,175.458,96,181.333,96z"/>
	</g>
</g>
<g>
</g>
<g>
</g>
<g>
</g>
<g>
</g>
<g>
</g>
<g>
</g>
<g>
</g>
<g>
</g>
<g>
</g>
<g>
</g>
<g>
</g>
<g>
</g>
<g>
</g>
<g>
</g>
<g>
</g>
</svg>
