<?xml version="1.0" encoding="UTF-8" standalone="no"?>
<svg
   xmlns:dc="http://purl.org/dc/elements/1.1/"
   xmlns:cc="http://creativecommons.org/ns#"
   xmlns:rdf="http://www.w3.org/1999/02/22-rdf-syntax-ns#"
   xmlns:svg="http://www.w3.org/2000/svg"
   xmlns="http://www.w3.org/2000/svg"
   viewBox="0 0 465.32001 134.46667"
   height="134.46667"
   width="465.32001"
   xml:space="preserve"
   id="svg2"
   version="1.1"><metadata
     id="metadata8"><rdf:RDF><cc:Work
         rdf:about=""><dc:format>image/svg+xml</dc:format><dc:type
           rdf:resource="http://purl.org/dc/dcmitype/StillImage" /></cc:Work></rdf:RDF></metadata><defs
     id="defs6" /><g
     transform="matrix(1.3333333,0,0,-1.3333333,0,134.46667)"
     id="g10"><g
       transform="scale(0.1)"
       id="g12"><path
         id="path14"
         style="fill:#ffffff;fill-opacity:1;fill-rule:nonzero;stroke:none"
         d="m 1046.5,271.145 c 49.72,0 65.82,21.089 65.82,80.117 0,61.902 -18.25,79.785 -65.82,79.785 h -22.18 V 271.145 Z m -88.367,-4.282 29.347,5.696 v 157.402 l -29.347,5.715 v 11.094 h 92.297 c 65.1,0 101.94,-44.004 101.94,-95.508 0,-51.145 -36.84,-95.5 -101.94,-95.5 h -92.297 v 11.101" /><path
         id="path16"
         style="fill:#ffffff;fill-opacity:1;fill-rule:nonzero;stroke:none"
         d="m 1176.76,266.855 29.34,5.704 v 157.414 l -29.34,5.711 v 11.101 h 161.68 l 7.51,-60.816 -7.51,-2.871 -28.62,46.875 -67.23,5 v -75.118 l 38.62,2.5 11.8,28.973 h 9.3 v -73.699 h -9.3 l -11.8,27.195 -38.62,2.149 v -78.7 l 77.25,4.286 30.41,55.8 8.58,-2.851 -9.3,-69.746 h -172.77 v 11.093" /><path
         id="path18"
         style="fill:#ffffff;fill-opacity:1;fill-rule:nonzero;stroke:none"
         d="m 1535.4,373.828 h 25.01 c 44.36,0 55.71,8.985 55.71,48.672 0,40.371 -11.66,47.371 -49.04,47.371 h -31.68 z m 87.38,-109.734 c -31.68,84.051 -31.35,94.375 -67.03,94.375 h -20.35 v -85.371 l 32.36,-6.672 v -10.672 h -102.4 v 10.672 l 31.36,6.672 v 194.773 l -31.36,6.672 v 10.672 h 105.73 c 46.34,0 85.04,-21.348 85.04,-62.715 0,-35.684 -30.36,-52.344 -69.72,-58.008 v -0.672 c 22.68,-3 36.37,-10.668 51.38,-39.035 l 27.67,-51.687 22.01,-6.672 v -10.672 h -48.67 c -10.02,0 -13.69,2 -16.02,8.34" /><path
         id="path20"
         style="fill:#ffffff;fill-opacity:1;fill-rule:nonzero;stroke:none"
         d="m 1848.51,350.559 c 0,61.863 -19.68,85.125 -56.15,85.125 -36.85,0 -55.83,-23.262 -55.83,-85.125 0,-60.09 20.4,-83.352 55.83,-83.352 34.33,0 56.15,23.262 56.15,83.352 m -152.04,0 c 0,50.437 40.43,99.461 95.89,99.461 54.71,0 96.57,-49.024 96.57,-99.461 0,-50.442 -40.42,-97.649 -96.57,-97.649 -56.18,0 -95.89,47.207 -95.89,97.649" /><path
         id="path22"
         style="fill:#ffffff;fill-opacity:1;fill-rule:nonzero;stroke:none"
         d="m 1953.23,267.207 32.9,5.715 v 161.695 l -33.63,-4.297 -28.26,-59.754 -8.57,2.539 5.36,73.665 h 166.7 l 5.73,-73.665 -9.32,-2.539 -27.89,59.754 -33.63,4.297 V 272.922 l 32.91,-5.715 v -11.445 h -102.3 v 11.445" /><path
         id="path24"
         style="fill:#ffffff;fill-opacity:1;fill-rule:nonzero;stroke:none"
         d="m 2120.49,267.207 29.35,5.715 v 156.687 l -29.35,5.735 v 11.426 h 91.94 v -11.426 l -25.76,-5.735 v -70.125 h 85.85 v 70.125 l -25.74,5.735 v 11.426 h 91.93 v -11.426 l -29.32,-5.735 V 272.922 l 29.32,-5.715 v -11.445 h -91.93 v 11.445 l 25.74,5.715 v 71.187 h -85.85 v -71.187 l 25.76,-5.715 v -11.445 h -91.94 v 11.445" /><path
         id="path26"
         style="fill:#ffffff;fill-opacity:1;fill-rule:nonzero;stroke:none"
         d="m 2392.78,270.422 -6.44,-14.66 h -12.17 l -6.79,71.203 9.31,2.144 c 23.24,-46.16 40.77,-61.902 69.02,-61.902 22.9,0 38.28,12.168 38.28,29.695 0,20.032 -9.3,28.254 -49.01,41.86 -44.36,15.379 -62.58,29.676 -62.58,60.086 0,28.972 22.87,51.172 59.75,51.172 18.95,0 35.02,-6.817 44.32,-14.336 l 6.1,11.086 h 11.08 l 5.37,-59.375 -7.87,-2.153 c -21.11,38.305 -35.78,50.442 -59.75,50.442 -20.36,0 -32.53,-11.797 -32.53,-26.106 0,-17.879 6.06,-22.898 47.21,-36.473 36.49,-12.187 66.17,-29.003 66.17,-64.062 0,-32.168 -25.4,-56.133 -64.74,-56.133 -25.4,0 -44.35,8.211 -54.73,17.512" /><path
         id="path28"
         style="fill:#ffffff;fill-opacity:1;fill-rule:nonzero;stroke:none"
         d="m 2533.83,351.27 c 0,51.503 40.42,97.636 92.3,97.636 23.24,0 37.55,-8.215 47.2,-15.359 l 6.1,13.211 h 10 l 8.23,-71.863 -8.23,-2.153 c -25.05,47.922 -37.91,61.875 -63.3,61.875 -32.56,0 -50.79,-20.73 -50.79,-86.219 0,-58.671 19.31,-79.765 56.85,-79.765 26.12,0 46.15,15.383 58.69,33.996 l 10.38,-5.734 c -15.4,-26.114 -38.63,-43.274 -74.05,-43.274 -53.31,0 -93.38,43.645 -93.38,97.649" /><path
         id="path30"
         style="fill:#ffffff;fill-opacity:1;fill-rule:nonzero;stroke:none"
         d="m 2726.48,267.207 29.32,5.715 v 156.687 l -29.32,5.735 v 11.426 h 91.92 v -11.426 l -25.76,-5.735 v -70.125 h 85.85 v 70.125 l -25.76,5.735 v 11.426 h 91.95 v -11.426 l -29.34,-5.735 V 272.922 l 29.34,-5.715 v -11.445 h -91.95 v 11.445 l 25.76,5.715 v 71.187 h -85.85 v -71.187 l 25.76,-5.715 v -11.445 h -91.92 v 11.445" /><path
         id="path32"
         style="fill:#ffffff;fill-opacity:1;fill-rule:nonzero;stroke:none"
         d="m 2974.83,267.207 31.1,5.715 v 156.687 l -31.1,5.735 v 11.426 h 99.09 v -11.426 l -31.12,-5.735 V 272.922 l 31.12,-5.715 v -11.445 h -99.09 v 11.445" /><path
         id="path34"
         style="fill:#ffffff;fill-opacity:1;fill-rule:nonzero;stroke:none"
         d="m 3103.66,267.207 29.32,5.715 v 156.687 l -29.32,5.735 v 11.426 h 96.58 v -11.426 l -30.41,-5.735 V 268.645 l 60.82,5.015 32.91,59.367 8.92,-2.519 -11.44,-74.746 h -157.38 v 11.445" /><path
         id="path36"
         style="fill:#ffffff;fill-opacity:1;fill-rule:nonzero;stroke:none"
         d="m 3383.97,271.145 c 49.71,0 65.83,21.089 65.83,80.117 0,61.902 -18.24,79.785 -65.83,79.785 h -22.19 V 271.145 Z m -88.35,-4.282 29.34,5.696 v 157.402 l -29.34,5.715 v 11.094 h 92.29 c 65.09,0 101.95,-44.004 101.95,-95.508 0,-51.145 -36.86,-95.5 -101.95,-95.5 h -92.29 v 11.101" /><path
         id="path38"
         style="fill:#ffffff;fill-opacity:1;fill-rule:nonzero;stroke:none"
         d="m 957.906,610.902 31.352,6.657 V 812.328 L 957.906,819 v 10.68 h 179.764 l 8.01,-64.391 -7.02,-1.633 -33,49.352 -77.71,5.992 v -95.715 l 42.02,2.66 13.68,33.684 h 7.99 v -81.363 h -7.99 l -13.68,31.004 -42.02,2.328 v -99.719 l 90.04,5.035 35.7,60.027 7.99,-1.687 -9.99,-75.024 H 957.906 v 10.672" /><path
         id="path40"
         style="fill:#ffffff;fill-opacity:1;fill-rule:nonzero;stroke:none"
         d="m 1269.61,615.602 c 49.72,0 65.82,21.113 65.82,80.113 0,61.922 -18.23,79.781 -65.82,79.781 h -22.18 V 615.602 Z m -88.37,-4.286 29.35,5.715 v 157.403 l -29.35,5.695 v 11.137 h 92.3 c 65.13,0 101.95,-44.032 101.95,-95.551 0,-51.141 -36.82,-95.496 -101.95,-95.496 h -92.3 v 11.097" /><path
         id="path42"
         style="fill:#ffffff;fill-opacity:1;fill-rule:nonzero;stroke:none"
         d="m 1399.7,611.664 29.32,5.734 v 156.665 l -29.32,5.734 v 11.465 h 71.18 l 54,-132.727 52.24,132.727 h 74.77 v -11.465 l -29.34,-5.734 V 617.398 l 29.34,-5.734 v -11.43 h -89.8 v 11.43 l 23.25,5.734 v 148.797 l -65.11,-157.031 h -10.71 l -67.27,157.031 7.53,-148.797 23.96,-5.734 v -11.43 h -74.04 v 11.43" /><path
         id="path44"
         style="fill:#ffffff;fill-opacity:1;fill-rule:nonzero;stroke:none"
         d="m 1828.28,695.023 c 0,61.887 -19.65,85.114 -56.15,85.114 -36.84,0 -55.8,-23.227 -55.8,-85.114 0,-60.105 20.38,-83.347 55.8,-83.347 34.33,0 56.15,23.242 56.15,83.347 m -151.99,0 c 0,50.442 40.4,99.446 95.84,99.446 54.72,0 96.58,-49.004 96.58,-99.446 0,-50.437 -40.43,-97.664 -96.58,-97.664 -56.17,0 -95.84,47.227 -95.84,97.664" /><path
         id="path46"
         style="fill:#ffffff;fill-opacity:1;fill-rule:nonzero;stroke:none"
         d="m 1935.83,765.84 8.24,-148.453 30.39,-5.731 v -11.429 h -81.56 v 11.429 l 29.35,5.731 V 774.07 l -29.35,5.735 v 11.445 h 70.12 l 99.82,-130.57 -7.17,113.39 -29.67,5.735 v 11.445 h 78.66 v -11.445 l -27.53,-5.735 V 597.727 h -10 l -131.3,168.113" /><path
         id="path48"
         style="fill:#ffffff;fill-opacity:1;fill-rule:nonzero;stroke:none"
         d="m 2221.96,615.602 c 49.69,0 65.81,21.113 65.81,80.113 0,61.922 -18.25,79.781 -65.81,79.781 h -22.18 V 615.602 Z m -88.37,-4.286 29.34,5.715 v 157.403 l -29.34,5.695 v 11.137 h 92.29 c 65.11,0 101.96,-44.032 101.96,-95.551 0,-51.141 -36.85,-95.496 -101.96,-95.496 h -92.29 v 11.097" /><path
         id="path50"
         style="fill:#ffffff;fill-opacity:1;fill-rule:nonzero;stroke:none"
         d="M 790.984,1008.47 H 0 V 215.918 L 3.65625,209.855 98.4883,51.9648 105.93,39.6016 h 14.445 92.387 L 390.121,1.17188 395.52,0 400.906,1.17188 578.301,39.6016 h 92.328 14.441 l 7.45,12.3632 94.808,157.9062 3.656,6.047 v 7.102 759.929 z M 765.461,982.949 V 223.02 L 670.629,65.1172 H 575.578 L 395.52,26.1133 215.5,65.1172 H 120.375 L 25.5273,223.02 V 982.949 H 765.461" /><path
         id="path52"
         style="fill:#ffffff;fill-opacity:1;fill-rule:nonzero;stroke:none"
         d="M 216.172,68.2227 122.164,68.293 28.7109,223.898 V 979.766 H 762.293 V 223.898 L 668.82,68.293 H 575.586 L 395.512,29.375 216.172,68.2227" /><path
         id="path54"
         style="fill:#100f0d;fill-opacity:1;fill-rule:nonzero;stroke:none"
         d="M 765.469,982.953 H 25.5117 V 223.008 L 120.359,65.1094 h 95.149 l 180,-38.9961 180.058,38.9961 h 95.071 l 94.832,157.8986 z m -6.379,-6.375 V 224.766 L 667.016,71.4844 h -92.114 l -0.679,-0.125 -178.715,-38.7227 -178.66,38.7227 -0.664,0.125 h -0.676 -91.524 L 31.8867,224.766 V 976.578 H 759.09" /><path
         id="path56"
         style="fill:#fbc807;fill-opacity:1;fill-rule:nonzero;stroke:none"
         d="m 395.188,412.551 h 85.699 v 110.652 h 257.07 V 235.84 L 652.234,92.1094 H 566.645 L 395.188,129.504 v 283.047" /><path
         id="path58"
         style="fill:#fbc807;fill-opacity:1;fill-rule:nonzero;stroke:none"
         d="m 394.73,954.25 0.786,-326.141 H 309.91 V 523.207 H 52.8242 V 954.25 H 394.73" /><path
         id="path60"
         style="fill:#e61b32;fill-opacity:1;fill-rule:nonzero;stroke:none"
         d="m 196.836,869.758 -30.996,-20.438 -19.52,12.481 17.145,-19.571 41.695,12.75 5.094,7.993 -13.418,6.785" /><path
         id="path62"
         style="fill:none;stroke:#e61b32;stroke-width:1.5;stroke-linecap:butt;stroke-linejoin:miter;stroke-miterlimit:5;stroke-dasharray:none;stroke-opacity:1"
         d="m 196.836,869.758 -30.996,-20.438 -19.52,12.481 17.145,-19.571 41.695,12.75 5.094,7.993 z" /><path
         id="path64"
         style="fill:#100f0d;fill-opacity:1;fill-rule:nonzero;stroke:none"
         d="m 259.738,808.586 -17.879,23.465 12.18,27.008 -12.18,13.211 -36.675,-15.747 -8.598,-6.687 7.492,-17.106 -18.539,-24.144 -27.637,3.656 -50.898,86.082 -0.844,12.461 -8.2108,-15.879 33.7738,-85.957 -47.8519,16.996 -5.9336,9.43 -1.8203,-12.809 50.9178,-48.125 -43.3827,-7.843 -6.6328,5.054 3.293,-11.359 47.8435,-6.742 -39.2458,-28.039 -8.5977,-0.664 8.5977,-7.422 62.6018,30.191 -58.5237,-93.09 -12.6758,-5.328 17.2891,-6.008 69.1604,96.321 -59.188,-143.25 -19.2342,-26.735 33.1682,21.446 63.226,143.211 37.852,-56.907 38,56.907 63.191,-143.211 33.239,-21.446 -19.274,26.735 -59.172,143.25 69.149,-96.321 17.273,6.008 -12.66,5.328 -58.559,93.09 62.618,-30.191 8.601,7.422 -8.601,0.664 -39.321,28.039 47.922,6.742 3.324,11.359 -6.632,-5.054 -43.418,7.843 50.918,48.125 -1.789,12.809 -5.965,-9.43 -48.805,-18.59 34.746,87.551 -8.23,15.879 -0.832,-12.461 -50.879,-86.082 -27.692,-3.656" /><path
         id="path66"
         style="fill:none;stroke:#100f0d;stroke-width:0.55000001;stroke-linecap:butt;stroke-linejoin:miter;stroke-miterlimit:5;stroke-dasharray:none;stroke-opacity:1"
         d="m 259.738,808.586 -17.879,23.465 12.18,27.008 -12.18,13.211 -36.675,-15.747 -8.598,-6.687 7.492,-17.106 -18.539,-24.144 -27.637,3.656 -50.898,86.082 -0.844,12.461 -8.2108,-15.879 33.7738,-85.957 -47.8519,16.996 -5.9336,9.43 -1.8203,-12.809 50.9178,-48.125 -43.3827,-7.843 -6.6328,5.054 3.293,-11.359 47.8435,-6.742 -39.2458,-28.039 -8.5977,-0.664 8.5977,-7.422 62.6018,30.191 -58.5237,-93.09 -12.6758,-5.328 17.2891,-6.008 69.1604,96.321 -59.188,-143.25 -19.2342,-26.735 33.1682,21.446 63.226,143.211 37.852,-56.907 38,56.907 63.191,-143.211 33.239,-21.446 -19.274,26.735 -59.172,143.25 69.149,-96.321 17.273,6.008 -12.66,5.328 -58.559,93.09 62.618,-30.191 8.601,7.422 -8.601,0.664 -39.321,28.039 47.922,6.742 3.324,11.359 -6.632,-5.054 -43.418,7.843 50.918,48.125 -1.789,12.809 -5.965,-9.43 -48.805,-18.59 34.746,87.551 -8.23,15.879 -0.832,-12.461 -50.879,-86.082 z" /><path
         id="path68"
         style="fill:#e61b32;fill-opacity:1;fill-rule:nonzero;stroke:none"
         d="m 222.586,802.184 -21.555,-28.082 -17.433,23.925 -7.356,-9.886 46.344,-74.528 46.508,74.528 -7.348,9.886 -17.461,-23.925 -21.699,28.082" /><path
         id="path70"
         style="fill:#100f0d;fill-opacity:1;fill-rule:nonzero;stroke:none"
         d="m 294.836,873.418 -37.688,20.051 -20.835,0.105 -6.672,11.465 H 208.27 l 15.914,-9.789 -9.723,-2.336 c -2.348,-0.769 -18.004,-7.754 -23.242,-11.23 0,0 20.414,-7.532 -3.617,-32.004 l 15.82,-2.078 7.016,-18.34 9.136,17.051 8.817,-25.375 13.488,41.343 15.641,-29.933 8.152,26.699 -3.086,13.601 32.25,0.77" /><path
         id="path72"
         style="fill:none;stroke:#100f0d;stroke-width:0.55000001;stroke-linecap:butt;stroke-linejoin:miter;stroke-miterlimit:5;stroke-dasharray:none;stroke-opacity:1"
         d="m 294.836,873.418 -37.688,20.051 -20.835,0.105 -6.672,11.465 H 208.27 l 15.914,-9.789 -9.723,-2.336 c -2.348,-0.769 -18.004,-7.754 -23.242,-11.23 0,0 20.414,-7.532 -3.617,-32.004 l 15.82,-2.078 7.016,-18.34 9.136,17.051 8.817,-25.375 13.488,41.343 15.641,-29.933 8.152,26.699 -3.086,13.601 z" /><path
         id="path74"
         style="fill:#1d2950;fill-opacity:1;fill-rule:nonzero;stroke:none"
         d="M 395.188,57.7813 566.645,95.1563 395.188,132.473 Z" /><path
         id="path76"
         style="fill:#fbc807;fill-opacity:1;fill-rule:nonzero;stroke:none"
         d="M 395.516,57.7539 224.148,95.168 395.516,132.41 Z" /><path
         id="path78"
         style="fill:#1d2950;fill-opacity:1;fill-rule:nonzero;stroke:none"
         d="m 396.063,954.25 -0.864,-326.141 h 85.684 V 523.207 H 737.961 V 954.25 H 396.063" /><path
         id="path80"
         style="fill:#1d2950;fill-opacity:1;fill-rule:nonzero;stroke:none"
         d="m 395.516,412.551 h -85.61 V 523.203 H 52.8398 V 235.84 L 138.504,92.1094 h 85.644 l 171.368,37.3946 v 283.047" /><path
         id="path82"
         style="fill:#100f0d;fill-opacity:1;fill-rule:nonzero;stroke:none"
         d="M 738.211,954.25 H 52.8242 V 235.828 L 138.508,92.1172 h 85.644 L 395.516,54.8164 566.898,92.1172 h 85.59 l 85.723,143.7108 z m -6.356,-6.359 V 237.59 L 648.891,98.4766 h -82.672 l -0.68,-0.1485 -170.023,-37.0078 -170.004,37.0078 -0.66,0.1485 h -0.7 -82.043 L 59.1836,237.59 V 947.891 H 731.855" /><path
         id="path84"
         style="fill:none;stroke:#100f0d;stroke-width:3.46000004;stroke-linecap:butt;stroke-linejoin:miter;stroke-miterlimit:4;stroke-dasharray:none;stroke-opacity:1"
         d="M 395.516,146.73 V 57.7031" /><path
         id="path86"
         style="fill:none;stroke:#100f0d;stroke-width:8.97999954;stroke-linecap:butt;stroke-linejoin:miter;stroke-miterlimit:4;stroke-dasharray:none;stroke-opacity:1"
         d="M 395.516,135.227 V 414.004" /><path
         id="path88"
         style="fill:none;stroke:#100f0d;stroke-width:10.38000011;stroke-linecap:butt;stroke-linejoin:miter;stroke-miterlimit:4;stroke-dasharray:none;stroke-opacity:1"
         d="M 395.516,623.801 V 945.656" /><path
         id="path90"
         style="fill:none;stroke:#100f0d;stroke-width:10.38000011;stroke-linecap:butt;stroke-linejoin:miter;stroke-miterlimit:4;stroke-dasharray:none;stroke-opacity:1"
         d="M 726.801,523.207 H 481.219" /><path
         id="path92"
         style="fill:none;stroke:#100f0d;stroke-width:10.38000011;stroke-linecap:butt;stroke-linejoin:miter;stroke-miterlimit:4;stroke-dasharray:none;stroke-opacity:1"
         d="M 309.895,523.207 H 64.2422" /><path
         id="path94"
         style="fill:#fbc807;fill-opacity:1;fill-rule:nonzero;stroke:none"
         d="M 61.4961,550.332 128.715,523.207 61.4961,496.184 Z" /><path
         id="path96"
         style="fill:#100f0d;fill-opacity:1;fill-rule:nonzero;stroke:none"
         d="m 58.7539,554.41 v -62.293 l 7.5469,3.031 57.0902,22.954 12.664,5.086 -12.664,5.109 -57.0707,23.062 z m 5.4922,-8.16 57.0899,-23.043 -57.0899,-22.953 z" /><path
         id="path98"
         style="fill:#1d2950;fill-opacity:1;fill-rule:nonzero;stroke:none"
         d="m 662.27,523.203 67.289,27.117 v -54.129 z" /><path
         id="path100"
         style="fill:#100f0d;fill-opacity:1;fill-rule:nonzero;stroke:none"
         d="m 732.305,554.402 -7.555,-3.05 -57.164,-23.055 -12.68,-5.094 12.696,-5.105 57.148,-22.93 7.555,-3.059 v 8.145 22.949 23.043 z m -5.5,-8.156 v -45.992 l -57.164,22.949 z" /><path
         id="path102"
         style="fill:#fbc807;fill-opacity:1;fill-rule:nonzero;stroke:none"
         d="m 478.461,539.086 55.656,-15.879 -55.656,-15.801 z" /><path
         id="path104"
         style="fill:#100f0d;fill-opacity:1;fill-rule:nonzero;stroke:none"
         d="m 475.715,542.73 v -38.957 l 7.004,1.989 42.847,12.164 18.614,5.254 -18.594,5.312 -42.852,12.235 z m 5.496,-7.296 42.863,-12.215 -42.863,-12.184 z" /><path
         id="path106"
         style="fill:#1d2950;fill-opacity:1;fill-rule:nonzero;stroke:none"
         d="m 259.805,523.203 55.691,15.875 v -31.68 z" /><path
         id="path108"
         style="fill:#100f0d;fill-opacity:1;fill-rule:nonzero;stroke:none"
         d="m 318.238,542.73 -7,-2.003 -42.886,-12.235 -18.614,-5.312 18.614,-5.254 42.886,-12.164 7,-1.989 v 7.282 12.164 12.234 z m -5.492,-7.277 v -24.398 l -42.891,12.164 z" /><path
         id="path110"
         style="fill:#1d2950;fill-opacity:1;fill-rule:nonzero;stroke:none"
         d="m 368.641,945.566 h 53.82 l -26.953,-67.714 z" /><path
         id="path112"
         style="fill:#100f0d;fill-opacity:1;fill-rule:nonzero;stroke:none"
         d="m 426.508,948.316 h -61.926 l 2.992,-7.535 22.824,-57.515 5.114,-12.84 5.105,12.84 22.899,57.515 z m -8.121,-5.492 -22.875,-57.515 -22.824,57.515 z" /><path
         id="path114"
         style="fill:#100f0d;fill-opacity:1;fill-rule:nonzero;stroke:none"
         d="M 738.211,954.25 H 52.8242 V 235.828 L 138.508,92.1172 h 85.644 L 395.516,129.492 566.898,92.1172 h 85.59 L 738.211,235.828 Z M 725.457,941.5 V 239.355 L 645.254,104.863 h -76.977 l -170.043,37.102 -2.718,0.594 -2.735,-0.594 -170.004,-37.102 H 145.746 L 65.5938,239.355 V 941.5 H 725.457" /><path
         id="path116"
         style="fill:#e61b32;fill-opacity:1;fill-rule:nonzero;stroke:none"
         d="M 316.258,621.746 H 474.852 V 418.906 H 316.258 v 202.84" /><path
         id="path118"
         style="fill:#100f0d;fill-opacity:1;fill-rule:nonzero;stroke:none"
         d="M 481.211,628.105 H 309.883 V 412.551 H 481.211 Z M 468.492,425.266 H 322.613 V 615.391 H 468.492 V 425.266" /><path
         id="path120"
         style="fill:#100f0d;fill-opacity:1;fill-rule:nonzero;stroke:none"
         d="m 347.227,458.75 22.097,44.262 c -0.105,0.093 -0.16,0.129 -0.293,0.273 -0.605,0.758 -1.25,1.582 -1.89,2.356 -0.114,0.05 -0.164,0.164 -0.239,0.332 -0.332,0.343 -0.531,0.699 -0.832,1.082 l -32.277,-65.27 56.023,46.211 c -1.582,0.649 -3.07,1.438 -4.613,2.246 L 347.227,458.75" /><path
         id="path122"
         style="fill:none;stroke:#100f0d;stroke-width:0.19;stroke-linecap:butt;stroke-linejoin:miter;stroke-miterlimit:4;stroke-dasharray:none;stroke-opacity:1"
         d="m 347.227,458.75 22.097,44.262 c -0.105,0.093 -0.16,0.129 -0.293,0.273 -0.605,0.758 -1.25,1.582 -1.89,2.356 -0.114,0.05 -0.164,0.164 -0.239,0.332 -0.332,0.343 -0.531,0.699 -0.832,1.082 l -32.277,-65.27 56.023,46.211 c -1.582,0.649 -3.07,1.438 -4.613,2.246 z" /><path
         id="path124"
         style="fill:#100f0d;fill-opacity:1;fill-rule:nonzero;stroke:none"
         d="m 444.859,581.914 -22.007,-44.266 c 0.015,-0.109 0.164,-0.168 0.179,-0.277 0.645,-0.789 1.364,-1.527 1.895,-2.351 0.125,-0.075 0.258,-0.219 0.293,-0.348 0.293,-0.332 0.496,-0.695 0.769,-1.102 l 32.36,65.301 -56.004,-46.23 c 1.488,-0.664 3.086,-1.45 4.574,-2.258 l 37.941,31.531" /><path
         id="path126"
         style="fill:none;stroke:#100f0d;stroke-width:0.19;stroke-linecap:butt;stroke-linejoin:miter;stroke-miterlimit:4;stroke-dasharray:none;stroke-opacity:1"
         d="m 444.859,581.914 -22.007,-44.266 c 0.015,-0.109 0.164,-0.168 0.179,-0.277 0.645,-0.789 1.364,-1.527 1.895,-2.351 0.125,-0.075 0.258,-0.219 0.293,-0.348 0.293,-0.332 0.496,-0.695 0.769,-1.102 l 32.36,65.301 -56.004,-46.23 c 1.488,-0.664 3.086,-1.45 4.574,-2.258 z" /><path
         id="path128"
         style="fill:#100f0d;fill-opacity:1;fill-rule:nonzero;stroke:none"
         d="m 396.379,554.324 c -9.832,0 -19.57,-4.34 -26.145,-12.66 -11.472,-14.496 -9.078,-35.648 5.325,-47.191 6.121,-4.922 13.453,-7.305 20.761,-7.305 9.797,0 19.52,4.316 26.075,12.617 11.503,14.485 9.191,35.649 -5.215,47.207 -6.137,4.942 -13.504,7.332 -20.801,7.332 m 0,-4.058 c 6.707,0 13.008,-2.223 18.25,-6.434 12.641,-10.141 14.695,-28.773 4.566,-41.527 -5.562,-7.039 -13.906,-11.082 -22.875,-11.082 -6.683,0 -12.988,2.246 -18.226,6.433 -12.641,10.141 -14.735,28.742 -4.684,41.489 5.586,7.054 13.965,11.121 22.969,11.121" /><path
         id="path130"
         style="fill:#100f0d;fill-opacity:1;fill-rule:nonzero;stroke:none"
         d="m 396.359,551.039 c -16.629,0 -30.375,-13.633 -30.375,-30.48 0,-16.414 13.746,-30.137 30.375,-30.137 16.957,0 30.352,13.723 30.352,30.137 0,16.847 -13.395,30.48 -30.352,30.48 m 0,-5.437 c 13.981,0 24.934,-10.989 24.934,-25.043 0,-13.621 -11.191,-24.719 -24.934,-24.719 -13.523,0 -24.933,11.324 -24.933,24.719 0,13.816 11.187,25.043 24.933,25.043" /><path
         id="path132"
         style="fill:#100f0d;fill-opacity:1;fill-rule:nonzero;stroke:none"
         d="m 409.891,520.742 c 0,-7.535 -6.067,-13.617 -13.543,-13.617 -7.516,0 -13.543,6.082 -13.543,13.617 0,7.531 6.027,13.633 13.543,13.633 7.476,0 13.543,-6.102 13.543,-13.633" /><path
         id="path134"
         style="fill:#100f0d;fill-opacity:1;fill-rule:nonzero;stroke:none"
         d="m 193.371,668.477 v 51.304 l 13.984,-21.351 v -34.235 l -1.394,-5.715 10.859,-20.746 -13.84,9.153 2.149,-41.864 14.43,-8.359 -12.481,0.188 -5.066,-5.243 11.023,-9.222 -16.207,2.847 -6.726,10.993 -15.989,74.16 19.258,-1.91" /><path
         id="path136"
         style="fill:none;stroke:#100f0d;stroke-width:0.55000001;stroke-linecap:butt;stroke-linejoin:miter;stroke-miterlimit:5;stroke-dasharray:none;stroke-opacity:1"
         d="m 193.371,668.477 v 51.304 l 13.984,-21.351 v -34.235 l -1.394,-5.715 10.859,-20.746 -13.84,9.153 2.149,-41.864 14.43,-8.359 -12.481,0.188 -5.066,-5.243 11.023,-9.222 -16.207,2.847 -6.726,10.993 -15.989,74.16 z" /><path
         id="path138"
         style="fill:#100f0d;fill-opacity:1;fill-rule:nonzero;stroke:none"
         d="m 251.355,668.477 v 51.304 L 237.941,698.43 v -34.235 l 1.379,-5.715 -10.84,-20.746 13.817,9.153 -2.152,-41.864 -14.383,-8.359 12.437,0.188 5.09,-5.243 -11.047,-9.222 16.207,2.847 6.766,10.993 15.945,74.16 -19.805,-1.91" /><path
         id="path140"
         style="fill:none;stroke:#100f0d;stroke-width:0.55000001;stroke-linecap:butt;stroke-linejoin:miter;stroke-miterlimit:5;stroke-dasharray:none;stroke-opacity:1"
         d="m 251.355,668.477 v 51.304 L 237.941,698.43 v -34.235 l 1.379,-5.715 -10.84,-20.746 13.817,9.153 -2.152,-41.864 -14.383,-8.359 12.437,0.188 5.09,-5.243 -11.047,-9.222 16.207,2.847 6.766,10.993 15.945,74.16 z" /><path
         id="path142"
         style="fill:#100f0d;fill-opacity:1;fill-rule:nonzero;stroke:none"
         d="m 196.836,883.984 -18.559,-11.078 -6.25,-13.859 14.481,7.023 25.601,-3.086 -15.273,21" /><path
         id="path144"
         style="fill:none;stroke:#100f0d;stroke-width:1.5;stroke-linecap:butt;stroke-linejoin:miter;stroke-miterlimit:5;stroke-dasharray:none;stroke-opacity:1"
         d="m 196.836,883.984 -18.559,-11.078 -6.25,-13.859 14.481,7.023 25.601,-3.086 z" /><path
         id="path146"
         style="fill:#e61b32;fill-opacity:1;fill-rule:nonzero;stroke:none"
         d="m 474.25,189.59 1.875,18.137 15.195,15.527 c -6.175,2.832 -18.285,2.41 -18.285,2.41 l 11.137,21.934 27.711,12.043 -4.723,-11.692 7.516,-10.469 19.586,-1.21 4.355,2.128 -14.551,29.18 70.614,33.645 1.047,0.347 8.855,-10.308 -50.348,-30.141 13.141,-10.926 -2.887,-22.898 -2.793,-17.18 -45.789,0.059 -12.972,2.043 -16.188,-7.649 -12.496,-14.98" /><path
         id="path148"
         style="fill:none;stroke:#100f0d;stroke-width:3.55999994;stroke-linecap:butt;stroke-linejoin:miter;stroke-miterlimit:8;stroke-dasharray:none;stroke-opacity:1"
         d="m 474.25,189.59 1.875,18.137 15.195,15.527 c -6.175,2.832 -18.285,2.41 -18.285,2.41 l 11.137,21.934 27.711,12.043 -4.723,-11.692 7.516,-10.469 19.586,-1.21 4.355,2.128 -14.551,29.18 70.614,33.645 1.047,0.347 8.855,-10.308 -50.348,-30.141 13.141,-10.926 -2.887,-22.898 -2.793,-17.18 -45.789,0.059 -12.972,2.043 -16.188,-7.649 z" /><path
         id="path150"
         style="fill:#e61b32;fill-opacity:1;fill-rule:nonzero;stroke:none"
         d="m 557.266,181.191 1.355,-10.488 25.727,1.836 h 61.613 l 3.398,47.246 -9.539,3.469 3.657,-13.43 -5.278,7.129 -2.785,-13.301 -3.476,6.485 -1.192,-8.711 -29.566,-8.985 -28.594,4.024 c 0,0 -5.934,1.855 -8.086,4.961 0,0 -32.359,-20.215 -38.289,-28.887 l 31.055,8.652" /><path
         id="path152"
         style="fill:none;stroke:#100f0d;stroke-width:3.55999994;stroke-linecap:butt;stroke-linejoin:miter;stroke-miterlimit:8;stroke-dasharray:none;stroke-opacity:1"
         d="m 557.266,181.191 1.355,-10.488 25.727,1.836 h 61.613 l 3.398,47.246 -9.539,3.469 3.657,-13.43 -5.278,7.129 -2.785,-13.301 -3.476,6.485 -1.192,-8.711 -29.566,-8.985 -28.594,4.024 c 0,0 -5.934,1.855 -8.086,4.961 0,0 -32.359,-20.215 -38.289,-28.887 z" /><path
         id="path154"
         style="fill:#ffffff;fill-opacity:1;fill-rule:nonzero;stroke:none"
         d="m 580.559,331.504 17.511,4.785 -17.586,-4.504 z" /><path
         id="path156"
         style="fill:none;stroke:#100f0d;stroke-width:3.55999994;stroke-linecap:butt;stroke-linejoin:miter;stroke-miterlimit:5;stroke-dasharray:none;stroke-opacity:1"
         d="m 580.559,331.504 17.511,4.785 -17.586,-4.504 z" /><path
         id="path158"
         style="fill:#e61b32;fill-opacity:1;fill-rule:nonzero;stroke:none"
         d="m 677.039,306.152 -6.723,30.137 c 3.747,1.543 20.082,2.227 20.082,2.227 -4.648,6.172 -12.496,12.57 -12.496,12.57 l 1.786,18.316 -25.911,-24.812 14.645,-59.844 -17.145,-12.402 -14.683,27.949 -4.649,-7.148 9.043,-25.575 -1.875,-5.273 16.168,-11.445 4.668,13.386 24.293,9.895 -5.015,19.91 -2.188,12.109" /><path
         id="path160"
         style="fill:none;stroke:#100f0d;stroke-width:3.55999994;stroke-linecap:butt;stroke-linejoin:miter;stroke-miterlimit:8;stroke-dasharray:none;stroke-opacity:1"
         d="m 677.039,306.152 -6.723,30.137 c 3.747,1.543 20.082,2.227 20.082,2.227 -4.648,6.172 -12.496,12.57 -12.496,12.57 l 1.786,18.316 -25.911,-24.812 14.645,-59.844 -17.145,-12.402 -14.683,27.949 -4.649,-7.148 9.043,-25.575 -1.875,-5.273 16.168,-11.445 4.668,13.386 24.293,9.895 -5.015,19.91 z" /><path
         id="path162"
         style="fill:#e61b32;fill-opacity:1;fill-rule:nonzero;stroke:none"
         d="m 471.078,308.918 c 0,0 17.031,5.898 22.012,3.398 l 10.453,-13.656 11.445,-13.926 2.094,10.961 14.391,2.965 42.082,7.942 -17.145,12.019 -1.617,5.949 25.758,6.934 -0.071,0.273 -46.289,-6.132 -31.218,-3.848 -10.27,11.269 -14.39,-7.878 -7.235,-16.27" /><path
         id="path164"
         style="fill:none;stroke:#100f0d;stroke-width:3.55999994;stroke-linecap:butt;stroke-linejoin:miter;stroke-miterlimit:8;stroke-dasharray:none;stroke-opacity:1"
         d="m 471.078,308.918 c 0,0 17.031,5.898 22.012,3.398 l 10.453,-13.656 11.445,-13.926 2.094,10.961 14.391,2.965 42.082,7.942 -17.145,12.019 -1.617,5.949 25.758,6.934 -0.071,0.273 -46.289,-6.132 -31.218,-3.848 -10.27,11.269 -14.39,-7.878 z" /><path
         id="path166"
         style="fill:#e61b32;fill-opacity:1;fill-rule:nonzero;stroke:none"
         d="m 634.777,250.215 4.336,12.09 1.856,5.273 -9.035,25.559 4.668,7.168 -9.305,29.804 0.48,6.168 -8.632,21.528 -9.911,-6.418 -2.312,-8.25 -3.512,-2.043 -5.324,-4.817 -17.531,-4.773 -25.762,-6.941 1.617,-5.958 17.145,-11.996 13.468,-9.375 6.395,-4.414 2.406,-5.925 -44.449,-25.762 13.121,-10.938 44.113,-36.953 v -18.554 h 22.739 l 11.203,9.55 4.961,13.067 v 9.98 l -3.711,2.403 -4.082,4.98 -4.942,15.547" /><path
         id="path168"
         style="fill:none;stroke:#100f0d;stroke-width:3.55999994;stroke-linecap:butt;stroke-linejoin:miter;stroke-miterlimit:8;stroke-dasharray:none;stroke-opacity:1"
         d="m 634.777,250.215 4.336,12.09 1.856,5.273 -9.035,25.559 4.668,7.168 -9.305,29.804 0.48,6.168 -8.632,21.528 -9.911,-6.418 -2.312,-8.25 -3.512,-2.043 -5.324,-4.817 -17.531,-4.773 -25.762,-6.941 1.617,-5.958 17.145,-11.996 13.468,-9.375 6.395,-4.414 2.406,-5.925 -44.449,-25.762 13.121,-10.938 44.113,-36.953 v -18.554 h 22.739 l 11.203,9.55 4.961,13.067 v 9.98 l -3.711,2.403 -4.082,4.98 z" /><path
         id="path170"
         style="fill:#e61b32;fill-opacity:1;fill-rule:nonzero;stroke:none"
         d="m 651.324,392.844 24,1.101 -41.359,29.414 -1.012,6.856 0.387,3.816 1.117,4.856 10.254,4.414 -3.731,2.109 -22.984,-6.816 13.027,-20.574 -42.89,-13.196 -13.121,14.492 c 0,0 -12.121,-8.984 -19.289,-10.886 0,0 2.808,-4.66 9.699,-8.977 l 6.398,-4.812 -5.972,-19.438 18.871,6.527 v -11.488 l -45.629,-12.437 -5.418,20.175 -10.195,26.266 -26.793,2.043 15.527,-14.93 -21.684,-1.437 -14.386,-9.793 c 0,0 18.156,-0.539 30.023,-5.129 l -21.684,-9.57 -8.339,-15.235 25.855,7.61 h 15.82 l 9.848,-40.461 70.41,18.933 5.883,-18.281 12.438,36.887 12.902,-31.184 13.539,54.281 8.488,14.864" /><path
         id="path172"
         style="fill:none;stroke:#100f0d;stroke-width:3.55999994;stroke-linecap:butt;stroke-linejoin:miter;stroke-miterlimit:8;stroke-dasharray:none;stroke-opacity:1"
         d="m 651.324,392.844 24,1.101 -41.359,29.414 -1.012,6.856 0.387,3.816 1.117,4.856 10.254,4.414 -3.731,2.109 -22.984,-6.816 13.027,-20.574 -42.89,-13.196 -13.121,14.492 c 0,0 -12.121,-8.984 -19.289,-10.886 0,0 2.808,-4.66 9.699,-8.977 l 6.398,-4.812 -5.972,-19.438 18.871,6.527 v -11.488 l -45.629,-12.437 -5.418,20.175 -10.195,26.266 -26.793,2.043 15.527,-14.93 -21.684,-1.437 -14.386,-9.793 c 0,0 18.156,-0.539 30.023,-5.129 l -21.684,-9.57 -8.339,-15.235 25.855,7.61 h 15.82 l 9.848,-40.461 70.41,18.933 5.883,-18.281 12.438,36.887 12.902,-31.184 13.539,54.281 z" /><path
         id="path174"
         style="fill:#e61b32;fill-opacity:1;fill-rule:nonzero;stroke:none"
         d="m 637.797,419.531 30.609,7.129 -33.957,12.238 26.535,10.282 -46.418,8.347 c -22.121,5 -46.027,-8.375 -48.234,-9.293 -2.223,-0.918 -20.543,-8.691 -20.543,-8.691 l -3.121,2.812 -6.875,-12.445 5.348,-7.144 c 1.269,-1.711 7.043,-5.356 7.043,-5.356 l 0.16,5.852 7.074,3.84 c 3.418,0 18.082,-3.11 18.082,-3.11 l 1.508,-4.668 29.566,-45.164 10.746,27.102 20.364,-10.93 2.113,29.199" /><path
         id="path176"
         style="fill:none;stroke:#100f0d;stroke-width:3.55999994;stroke-linecap:butt;stroke-linejoin:miter;stroke-miterlimit:7;stroke-dasharray:none;stroke-opacity:1"
         d="m 637.797,419.531 30.609,7.129 -33.957,12.238 26.535,10.282 -46.418,8.347 c -22.121,5 -46.027,-8.375 -48.234,-9.293 -2.223,-0.918 -20.543,-8.691 -20.543,-8.691 l -3.121,2.812 -6.875,-12.445 5.348,-7.144 c 1.269,-1.711 7.043,-5.356 7.043,-5.356 l 0.16,5.852 7.074,3.84 c 3.418,0 18.082,-3.11 18.082,-3.11 l 1.508,-4.668 29.566,-45.164 10.746,27.102 20.364,-10.93 z" /><path
         id="path178"
         style="fill:#fbc807;fill-opacity:1;fill-rule:nonzero;stroke:none"
         d="m 572.188,659.727 h -3.454 l -7.98,-19.293 V 607.91 l 9.687,23.469 9.664,-23.469 v 32.524 l -7.917,19.293" /><path
         id="path180"
         style="fill:none;stroke:#fbc807;stroke-width:0.15000001;stroke-linecap:butt;stroke-linejoin:miter;stroke-miterlimit:4;stroke-dasharray:none;stroke-opacity:1"
         d="m 572.188,659.727 h -3.454 l -7.98,-19.293 V 607.91 l 9.687,23.469 9.664,-23.469 v 32.524 z" /><path
         id="path182"
         style="fill:#fbc807;fill-opacity:1;fill-rule:nonzero;stroke:none"
         d="m 580.109,839.031 -9.664,53.696 -9.679,-53.696 z" /><path
         id="path184"
         style="fill:none;stroke:#fbc807;stroke-width:0.15000001;stroke-linecap:butt;stroke-linejoin:miter;stroke-miterlimit:4;stroke-dasharray:none;stroke-opacity:1"
         d="m 580.109,839.031 -9.664,53.696 -9.679,-53.696 z" /><path
         id="path186"
         style="fill:#fbc807;fill-opacity:1;fill-rule:nonzero;stroke:none"
         d="m 527.746,670.316 -1.562,0.868 -16.059,-13.309 -15.344,-28.719 19.66,16.172 -2.535,-25.265 15.364,28.683 1.988,20.727 -1.512,0.843" /><path
         id="path188"
         style="fill:none;stroke:#fbc807;stroke-width:0.15000001;stroke-linecap:butt;stroke-linejoin:miter;stroke-miterlimit:4;stroke-dasharray:none;stroke-opacity:1"
         d="m 527.746,670.316 -1.562,0.868 -16.059,-13.309 -15.344,-28.719 19.66,16.172 -2.535,-25.265 15.364,28.683 1.988,20.727 z" /><path
         id="path190"
         style="fill:#fbc807;fill-opacity:1;fill-rule:nonzero;stroke:none"
         d="m 620.801,824.156 16.722,51.875 -33.867,-42.832 z" /><path
         id="path192"
         style="fill:none;stroke:#fbc807;stroke-width:0.15000001;stroke-linecap:butt;stroke-linejoin:miter;stroke-miterlimit:4;stroke-dasharray:none;stroke-opacity:1"
         d="m 620.801,824.156 16.722,51.875 -33.867,-42.832 z" /><path
         id="path194"
         style="fill:#fbc807;fill-opacity:1;fill-rule:nonzero;stroke:none"
         d="m 495.105,699.625 -0.976,1.523 -20.504,-4.222 -27.031,-18.196 24.972,5.129 -14.113,-21.187 27.16,18.207 11.465,17.309 -0.973,1.437" /><path
         id="path196"
         style="fill:none;stroke:#fbc807;stroke-width:0.15000001;stroke-linecap:butt;stroke-linejoin:miter;stroke-miterlimit:4;stroke-dasharray:none;stroke-opacity:1"
         d="m 495.105,699.625 -0.976,1.523 -20.504,-4.222 -27.031,-18.196 24.972,5.129 -14.113,-21.187 27.16,18.207 11.465,17.309 z" /><path
         id="path198"
         style="fill:#fbc807;fill-opacity:1;fill-rule:nonzero;stroke:none"
         d="m 694.258,678.738 -27.016,18.196 -20.414,4.203 -1.012,-1.504 -1.023,-1.469 11.594,-17.273 27.031,-18.231 -14.059,21.188 24.899,-5.11" /><path
         id="path200"
         style="fill:none;stroke:#fbc807;stroke-width:0.15000001;stroke-linecap:butt;stroke-linejoin:miter;stroke-miterlimit:4;stroke-dasharray:none;stroke-opacity:1"
         d="m 694.258,678.738 -27.016,18.196 -20.414,4.203 -1.012,-1.504 -1.023,-1.469 11.594,-17.273 27.031,-18.231 -14.059,21.188 z" /><path
         id="path202"
         style="fill:#fbc807;fill-opacity:1;fill-rule:nonzero;stroke:none"
         d="m 502.082,807.934 -50.019,21.976 39.101,-37.922 z" /><path
         id="path204"
         style="fill:none;stroke:#fbc807;stroke-width:0.15000001;stroke-linecap:butt;stroke-linejoin:miter;stroke-miterlimit:4;stroke-dasharray:none;stroke-opacity:1"
         d="m 502.082,807.934 -50.019,21.976 39.101,-37.922 z" /><path
         id="path206"
         style="fill:#fbc807;fill-opacity:1;fill-rule:nonzero;stroke:none"
         d="m 646.094,629.156 -15.344,28.735 -16.059,13.304 -1.507,-0.882 -1.618,-0.844 2.075,-20.731 15.308,-28.679 -2.461,25.261 19.606,-16.164" /><path
         id="path208"
         style="fill:none;stroke:#fbc807;stroke-width:0.15000001;stroke-linecap:butt;stroke-linejoin:miter;stroke-miterlimit:4;stroke-dasharray:none;stroke-opacity:1"
         d="m 646.094,629.156 -15.344,28.735 -16.059,13.304 -1.507,-0.882 -1.618,-0.844 2.075,-20.731 15.308,-28.679 -2.461,25.261 z" /><path
         id="path210"
         style="fill:#fbc807;fill-opacity:1;fill-rule:nonzero;stroke:none"
         d="m 537.203,833.203 -33.844,42.832 16.715,-51.875 z" /><path
         id="path212"
         style="fill:none;stroke:#fbc807;stroke-width:0.15000001;stroke-linecap:butt;stroke-linejoin:miter;stroke-miterlimit:4;stroke-dasharray:none;stroke-opacity:1"
         d="m 537.203,833.203 -33.844,42.832 16.715,-51.875 z" /><path
         id="path214"
         style="fill:#fbc807;fill-opacity:1;fill-rule:nonzero;stroke:none"
         d="M 649.703,791.988 688.84,829.91 638.785,807.941 Z" /><path
         id="path216"
         style="fill:none;stroke:#fbc807;stroke-width:0.15000001;stroke-linecap:butt;stroke-linejoin:miter;stroke-miterlimit:4;stroke-dasharray:none;stroke-opacity:1"
         d="M 649.703,791.988 688.84,829.91 638.785,807.941 Z" /><path
         id="path218"
         style="fill:#fbc807;fill-opacity:1;fill-rule:nonzero;stroke:none"
         d="m 568.723,721.773 v -62.031 h 3.453 v 62.031 h -1.723 -1.73" /><path
         id="path220"
         style="fill:none;stroke:#fbc807;stroke-width:2.25999999;stroke-linecap:butt;stroke-linejoin:miter;stroke-miterlimit:4;stroke-dasharray:none;stroke-opacity:1"
         d="m 568.723,721.773 v -62.031 h 3.453 v 62.031 h -1.723 z" /><path
         id="path222"
         style="fill:#fbc807;fill-opacity:1;fill-rule:nonzero;stroke:none"
         d="m 572.188,778.109 v 70.618 h -3.454 v -70.618 h 1.707 1.747" /><path
         id="path224"
         style="fill:none;stroke:#fbc807;stroke-width:2.25999999;stroke-linecap:butt;stroke-linejoin:miter;stroke-miterlimit:4;stroke-dasharray:none;stroke-opacity:1"
         d="m 572.188,778.109 v 70.618 h -3.454 v -70.618 h 1.707 z" /><path
         id="path226"
         style="fill:#fbc807;fill-opacity:1;fill-rule:nonzero;stroke:none"
         d="m 618.359,836.316 -3.14,1.747 -33.242,-62.403 c 1.101,-0.461 2.078,-1.012 3.16,-1.672 l 33.222,62.328" /><path
         id="path228"
         style="fill:none;stroke:#fbc807;stroke-width:2.25999999;stroke-linecap:butt;stroke-linejoin:miter;stroke-miterlimit:4;stroke-dasharray:none;stroke-opacity:1"
         d="m 618.359,836.316 -3.14,1.747 -33.242,-62.403 c 1.101,-0.461 2.078,-1.012 3.16,-1.672 z" /><path
         id="path230"
         style="fill:#fbc807;fill-opacity:1;fill-rule:nonzero;stroke:none"
         d="m 526.18,671.191 3.066,-1.726 29.309,54.828 c -1.012,0.496 -2.059,1.082 -3.016,1.746 L 526.18,671.191" /><path
         id="path232"
         style="fill:none;stroke:#fbc807;stroke-width:2.25999999;stroke-linecap:butt;stroke-linejoin:miter;stroke-miterlimit:4;stroke-dasharray:none;stroke-opacity:1"
         d="m 526.18,671.191 3.066,-1.726 29.309,54.828 c -1.012,0.496 -2.059,1.082 -3.016,1.746 z" /><path
         id="path234"
         style="fill:#fbc807;fill-opacity:1;fill-rule:nonzero;stroke:none"
         d="m 494.133,701.137 1.949,-2.953 51.723,34.781 c -0.731,0.957 -1.356,1.93 -1.907,2.996 l -51.765,-34.824" /><path
         id="path236"
         style="fill:none;stroke:#fbc807;stroke-width:2.25999999;stroke-linecap:butt;stroke-linejoin:miter;stroke-miterlimit:4;stroke-dasharray:none;stroke-opacity:1"
         d="m 494.133,701.137 1.949,-2.953 51.723,34.781 c -0.731,0.957 -1.356,1.93 -1.907,2.996 z" /><path
         id="path238"
         style="fill:#fbc807;fill-opacity:1;fill-rule:nonzero;stroke:none"
         d="m 653.293,803.898 -1.984,2.922 -58.668,-39.414 c 0.785,-0.937 1.41,-1.914 2,-2.883 l 58.652,39.375" /><path
         id="path240"
         style="fill:none;stroke:#fbc807;stroke-width:2.25999999;stroke-linecap:butt;stroke-linejoin:miter;stroke-miterlimit:4;stroke-dasharray:none;stroke-opacity:1"
         d="m 653.293,803.898 -1.984,2.922 -58.668,-39.414 c 0.785,-0.937 1.41,-1.914 2,-2.883 z" /><path
         id="path242"
         style="fill:#fbc807;fill-opacity:1;fill-rule:nonzero;stroke:none"
         d="m 547.508,766.477 c 0.258,0.269 0.531,0.601 0.793,0.918 l -58.692,39.414 -1.929,-2.907 58.543,-39.414 c 0.496,0.684 0.754,1.289 1.285,1.934 v 0.055" /><path
         id="path244"
         style="fill:none;stroke:#fbc807;stroke-width:2.25999999;stroke-linecap:butt;stroke-linejoin:miter;stroke-miterlimit:4;stroke-dasharray:none;stroke-opacity:1"
         d="m 547.508,766.477 c 0.258,0.269 0.531,0.601 0.793,0.918 l -58.692,39.414 -1.929,-2.907 58.543,-39.414 c 0.496,0.684 0.754,1.289 1.285,1.934 z" /><path
         id="path246"
         style="fill:#fbc807;fill-opacity:1;fill-rule:nonzero;stroke:none"
         d="m 593.094,732.961 51.703,-34.781 2.043,2.953 -51.895,34.84 c -0.457,-1.067 -1.211,-2.035 -1.851,-3.012" /><path
         id="path248"
         style="fill:none;stroke:#fbc807;stroke-width:2.25999999;stroke-linecap:butt;stroke-linejoin:miter;stroke-miterlimit:4;stroke-dasharray:none;stroke-opacity:1"
         d="m 593.094,732.961 51.703,-34.781 2.043,2.953 -51.895,34.84 c -0.457,-1.067 -1.211,-2.035 -1.851,-3.012 z" /><path
         id="path250"
         style="fill:#fbc807;fill-opacity:1;fill-rule:nonzero;stroke:none"
         d="m 525.645,838.063 -3.125,-1.75 33.242,-62.309 c 1.062,0.644 2.074,1.195 3.125,1.656 l -33.242,62.403" /><path
         id="path252"
         style="fill:none;stroke:#fbc807;stroke-width:2.25999999;stroke-linecap:butt;stroke-linejoin:miter;stroke-miterlimit:4;stroke-dasharray:none;stroke-opacity:1"
         d="m 525.645,838.063 -3.125,-1.75 33.242,-62.309 c 1.062,0.644 2.074,1.195 3.125,1.656 z" /><path
         id="path254"
         style="fill:#fbc807;fill-opacity:1;fill-rule:nonzero;stroke:none"
         d="m 584.223,725.258 c -0.18,-0.055 -0.407,-0.145 -0.68,-0.313 -0.145,-0.16 -0.426,-0.16 -0.59,-0.328 -0.254,-0.109 -0.422,-0.109 -0.64,-0.277 v -0.055 l 29.253,-54.812 3.137,1.726 -29.23,54.832 c -0.188,-0.164 -0.442,-0.273 -0.645,-0.328 -0.18,-0.168 -0.332,-0.312 -0.605,-0.445" /><path
         id="path256"
         style="fill:none;stroke:#fbc807;stroke-width:2.25999999;stroke-linecap:butt;stroke-linejoin:miter;stroke-miterlimit:4;stroke-dasharray:none;stroke-opacity:1"
         d="m 584.223,725.258 c -0.18,-0.055 -0.407,-0.145 -0.68,-0.313 -0.145,-0.16 -0.426,-0.16 -0.59,-0.328 -0.254,-0.109 -0.422,-0.109 -0.64,-0.277 v -0.055 l 29.253,-54.812 3.137,1.726 -29.23,54.832 c -0.188,-0.164 -0.442,-0.273 -0.645,-0.328 -0.18,-0.168 -0.332,-0.312 -0.605,-0.445 z" /><path
         id="path258"
         style="fill:#fbc807;fill-opacity:1;fill-rule:nonzero;stroke:none"
         d="m 544.488,758.5 v 0.273 c 0.168,0.844 0.446,1.676 0.61,2.461 0.039,0.188 0.039,0.282 0.039,0.371 0.164,0.387 0.269,0.715 0.269,1.161 l -59.933,-12.883 59.933,-12.809 c -0.308,1.399 -0.636,2.828 -0.918,4.227" /><path
         id="path260"
         style="fill:none;stroke:#fbc807;stroke-width:0.75;stroke-linecap:butt;stroke-linejoin:miter;stroke-miterlimit:4;stroke-dasharray:none;stroke-opacity:1"
         d="m 544.488,758.5 v 0.273 c 0.168,0.844 0.446,1.676 0.61,2.461 0.039,0.188 0.039,0.282 0.039,0.371 0.164,0.387 0.269,0.715 0.269,1.161 l -59.933,-12.883 59.933,-12.809 c -0.308,1.399 -0.636,2.828 -0.918,4.227" /><path
         id="path262"
         style="fill:#fbc807;fill-opacity:1;fill-rule:nonzero;stroke:none"
         d="m 595.613,741.383 c -0.113,-0.129 -0.113,-0.184 -0.113,-0.274 -0.039,-0.867 -0.312,-1.711 -0.531,-2.593 v -0.274 c -0.149,-0.476 -0.258,-0.758 -0.332,-1.125 l 59.957,12.754 -59.957,12.844 c 0.332,-1.305 0.664,-2.774 0.918,-4.262" /><path
         id="path264"
         style="fill:none;stroke:#fbc807;stroke-width:0.75;stroke-linecap:butt;stroke-linejoin:miter;stroke-miterlimit:4;stroke-dasharray:none;stroke-opacity:1"
         d="m 595.613,741.383 c -0.113,-0.129 -0.113,-0.184 -0.113,-0.274 -0.039,-0.867 -0.312,-1.711 -0.531,-2.593 v -0.274 c -0.149,-0.476 -0.258,-0.758 -0.332,-1.125 l 59.957,12.754 -59.957,12.844 c 0.332,-1.305 0.664,-2.774 0.918,-4.262" /><path
         id="path266"
         style="fill:#fbc807;fill-opacity:1;fill-rule:nonzero;stroke:none"
         d="m 570.441,778.109 c -15.621,0 -28.312,-12.605 -28.312,-28.226 0,-15.449 12.691,-28.11 28.312,-28.11 15.676,0 28.317,12.661 28.317,28.11 0,15.621 -12.641,28.226 -28.317,28.226 m 0,-5.418 c 12.625,0 22.899,-10.242 22.899,-22.808 0,-12.512 -10.274,-22.692 -22.899,-22.692 -12.621,0 -22.894,10.18 -22.894,22.692 0,12.566 10.273,22.808 22.894,22.808" /><path
         id="path268"
         style="fill:#fbc807;fill-opacity:1;fill-rule:nonzero;stroke:none"
         d="m 570.441,761.414 c -6.336,0 -11.628,-5.18 -11.628,-11.574 0,-6.141 5.292,-11.434 11.628,-11.434 6.434,0 11.485,5.293 11.485,11.434 0,6.394 -5.051,11.574 -11.485,11.574" /><path
         id="path270"
         style="fill:none;stroke:#fbc807;stroke-width:0.38999999;stroke-linecap:butt;stroke-linejoin:miter;stroke-miterlimit:4;stroke-dasharray:none;stroke-opacity:1"
         d="m 570.441,761.414 c -6.336,0 -11.628,-5.18 -11.628,-11.574 0,-6.141 5.292,-11.434 11.628,-11.434 6.434,0 11.485,5.293 11.485,11.434 0,6.394 -5.051,11.574 -11.485,11.574 z" /><path
         id="path272"
         style="fill:#fbc807;fill-opacity:1;fill-rule:nonzero;stroke:none"
         d="m 224.086,218.098 h -3.477 l -7.933,-19.297 v -32.524 l 9.64,23.469 9.688,-23.469 v 32.524 l -7.918,19.297" /><path
         id="path274"
         style="fill:none;stroke:#fbc807;stroke-width:0.15000001;stroke-linecap:butt;stroke-linejoin:miter;stroke-miterlimit:4;stroke-dasharray:none;stroke-opacity:1"
         d="m 224.086,218.098 h -3.477 l -7.933,-19.297 v -32.524 l 9.64,23.469 9.688,-23.469 v 32.524 z" /><path
         id="path276"
         style="fill:#fbc807;fill-opacity:1;fill-rule:nonzero;stroke:none"
         d="m 232.004,397.402 -9.684,53.692 -9.668,-53.692 z" /><path
         id="path278"
         style="fill:none;stroke:#fbc807;stroke-width:0.15000001;stroke-linecap:butt;stroke-linejoin:miter;stroke-miterlimit:4;stroke-dasharray:none;stroke-opacity:1"
         d="m 232.004,397.402 -9.684,53.692 -9.668,-53.692 z" /><path
         id="path280"
         style="fill:#fbc807;fill-opacity:1;fill-rule:nonzero;stroke:none"
         d="m 179.641,228.711 -1.563,0.852 -16.058,-13.313 -15.34,-28.699 19.66,16.172 -2.539,-25.285 15.347,28.679 1.985,20.735 -1.492,0.859" /><path
         id="path282"
         style="fill:none;stroke:#fbc807;stroke-width:0.15000001;stroke-linecap:butt;stroke-linejoin:miter;stroke-miterlimit:4;stroke-dasharray:none;stroke-opacity:1"
         d="m 179.641,228.711 -1.563,0.852 -16.058,-13.313 -15.34,-28.699 19.66,16.172 -2.539,-25.285 15.347,28.679 1.985,20.735 z" /><path
         id="path284"
         style="fill:#fbc807;fill-opacity:1;fill-rule:nonzero;stroke:none"
         d="m 272.695,382.539 16.723,51.856 -33.867,-42.801 z" /><path
         id="path286"
         style="fill:none;stroke:#fbc807;stroke-width:0.15000001;stroke-linecap:butt;stroke-linejoin:miter;stroke-miterlimit:4;stroke-dasharray:none;stroke-opacity:1"
         d="m 272.695,382.539 16.723,51.856 -33.867,-42.801 z" /><path
         id="path288"
         style="fill:#fbc807;fill-opacity:1;fill-rule:nonzero;stroke:none"
         d="m 147,258.02 -0.973,1.484 -20.527,-4.172 -27.0117,-18.23 24.9567,5.105 -14.09,-21.141 27.137,18.18 11.485,17.297 -0.977,1.477" /><path
         id="path290"
         style="fill:none;stroke:#fbc807;stroke-width:0.15000001;stroke-linecap:butt;stroke-linejoin:miter;stroke-miterlimit:4;stroke-dasharray:none;stroke-opacity:1"
         d="m 147,258.02 -0.973,1.484 -20.527,-4.172 -27.0117,-18.23 24.9567,5.105 -14.09,-21.141 27.137,18.18 11.485,17.297 z" /><path
         id="path292"
         style="fill:#fbc807;fill-opacity:1;fill-rule:nonzero;stroke:none"
         d="m 346.152,237.109 -27.011,18.211 -20.418,4.192 -1.004,-1.492 -1.031,-1.489 11.589,-17.273 27.036,-18.192 -14.059,21.153 24.898,-5.11" /><path
         id="path294"
         style="fill:none;stroke:#fbc807;stroke-width:0.15000001;stroke-linecap:butt;stroke-linejoin:miter;stroke-miterlimit:4;stroke-dasharray:none;stroke-opacity:1"
         d="m 346.152,237.109 -27.011,18.211 -20.418,4.192 -1.004,-1.492 -1.031,-1.489 11.589,-17.273 27.036,-18.192 -14.059,21.153 z" /><path
         id="path296"
         style="fill:#fbc807;fill-opacity:1;fill-rule:nonzero;stroke:none"
         d="m 153.977,366.348 -50.012,21.972 39.101,-37.929 z" /><path
         id="path298"
         style="fill:none;stroke:#fbc807;stroke-width:0.15000001;stroke-linecap:butt;stroke-linejoin:miter;stroke-miterlimit:4;stroke-dasharray:none;stroke-opacity:1"
         d="m 153.977,366.348 -50.012,21.972 39.101,-37.929 z" /><path
         id="path300"
         style="fill:#fbc807;fill-opacity:1;fill-rule:nonzero;stroke:none"
         d="m 297.984,187.551 -15.339,28.699 -16.059,13.301 -1.512,-0.84 -1.613,-0.867 2.074,-20.742 15.309,-28.664 -2.461,25.285 19.601,-16.172" /><path
         id="path302"
         style="fill:none;stroke:#fbc807;stroke-width:0.15000001;stroke-linecap:butt;stroke-linejoin:miter;stroke-miterlimit:4;stroke-dasharray:none;stroke-opacity:1"
         d="m 297.984,187.551 -15.339,28.699 -16.059,13.301 -1.512,-0.84 -1.613,-0.867 2.074,-20.742 15.309,-28.664 -2.461,25.285 z" /><path
         id="path304"
         style="fill:#fbc807;fill-opacity:1;fill-rule:nonzero;stroke:none"
         d="m 189.086,391.594 -33.828,42.801 16.703,-51.856 z" /><path
         id="path306"
         style="fill:none;stroke:#fbc807;stroke-width:0.15000001;stroke-linecap:butt;stroke-linejoin:miter;stroke-miterlimit:4;stroke-dasharray:none;stroke-opacity:1"
         d="m 189.086,391.594 -33.828,42.801 16.703,-51.856 z" /><path
         id="path308"
         style="fill:#fbc807;fill-opacity:1;fill-rule:nonzero;stroke:none"
         d="m 301.602,350.402 39.136,37.899 -50.05,-21.953 z" /><path
         id="path310"
         style="fill:none;stroke:#fbc807;stroke-width:0.15000001;stroke-linecap:butt;stroke-linejoin:miter;stroke-miterlimit:4;stroke-dasharray:none;stroke-opacity:1"
         d="m 301.602,350.402 39.136,37.899 -50.05,-21.953 z" /><path
         id="path312"
         style="fill:#fbc807;fill-opacity:1;fill-rule:nonzero;stroke:none"
         d="m 220.609,280.137 v -62.032 h 3.469 v 62.032 h -1.746 -1.723" /><path
         id="path314"
         style="fill:none;stroke:#fbc807;stroke-width:2.25999999;stroke-linecap:butt;stroke-linejoin:miter;stroke-miterlimit:4;stroke-dasharray:none;stroke-opacity:1"
         d="m 220.609,280.137 v -62.032 h 3.469 v 62.032 h -1.746 z" /><path
         id="path316"
         style="fill:#fbc807;fill-opacity:1;fill-rule:nonzero;stroke:none"
         d="m 224.086,336.492 v 70.598 h -3.477 v -70.598 h 1.707 1.77" /><path
         id="path318"
         style="fill:none;stroke:#fbc807;stroke-width:2.25999999;stroke-linecap:butt;stroke-linejoin:miter;stroke-miterlimit:4;stroke-dasharray:none;stroke-opacity:1"
         d="m 224.086,336.492 v 70.598 h -3.477 v -70.598 h 1.707 z" /><path
         id="path320"
         style="fill:#fbc807;fill-opacity:1;fill-rule:nonzero;stroke:none"
         d="m 270.254,394.707 -3.141,1.731 -33.242,-62.368 c 1.102,-0.496 2.078,-1.023 3.156,-1.668 l 33.227,62.305" /><path
         id="path322"
         style="fill:none;stroke:#fbc807;stroke-width:2.25999999;stroke-linecap:butt;stroke-linejoin:miter;stroke-miterlimit:4;stroke-dasharray:none;stroke-opacity:1"
         d="m 270.254,394.707 -3.141,1.731 -33.242,-62.368 c 1.102,-0.496 2.078,-1.023 3.156,-1.668 z" /><path
         id="path324"
         style="fill:#fbc807;fill-opacity:1;fill-rule:nonzero;stroke:none"
         d="m 178.074,229.563 3.067,-1.731 29.293,54.856 c -1.012,0.476 -2.043,1.062 -3,1.714 l -29.36,-54.839" /><path
         id="path326"
         style="fill:none;stroke:#fbc807;stroke-width:2.25999999;stroke-linecap:butt;stroke-linejoin:miter;stroke-miterlimit:4;stroke-dasharray:none;stroke-opacity:1"
         d="m 178.074,229.563 3.067,-1.731 29.293,54.856 c -1.012,0.476 -2.043,1.062 -3,1.714 z" /><path
         id="path328"
         style="fill:#fbc807;fill-opacity:1;fill-rule:nonzero;stroke:none"
         d="m 146.027,259.512 1.95,-2.957 51.726,34.804 c -0.734,0.965 -1.359,1.903 -1.914,3.004 l -51.762,-34.851" /><path
         id="path330"
         style="fill:none;stroke:#fbc807;stroke-width:2.25999999;stroke-linecap:butt;stroke-linejoin:miter;stroke-miterlimit:4;stroke-dasharray:none;stroke-opacity:1"
         d="m 146.027,259.512 1.95,-2.957 51.726,34.804 c -0.734,0.965 -1.359,1.903 -1.914,3.004 z" /><path
         id="path332"
         style="fill:#fbc807;fill-opacity:1;fill-rule:nonzero;stroke:none"
         d="m 305.188,362.285 -1.989,2.918 -58.664,-39.43 c 0.785,-0.937 1.41,-1.914 2,-2.871 l 58.653,39.383" /><path
         id="path334"
         style="fill:none;stroke:#fbc807;stroke-width:2.25999999;stroke-linecap:butt;stroke-linejoin:miter;stroke-miterlimit:4;stroke-dasharray:none;stroke-opacity:1"
         d="m 305.188,362.285 -1.989,2.918 -58.664,-39.43 c 0.785,-0.937 1.41,-1.914 2,-2.871 z" /><path
         id="path336"
         style="fill:#fbc807;fill-opacity:1;fill-rule:nonzero;stroke:none"
         d="m 199.402,324.844 c 0.258,0.273 0.512,0.605 0.774,0.918 l -58.672,39.433 -1.93,-2.91 58.524,-39.426 c 0.511,0.676 0.754,1.282 1.304,1.926 v 0.059" /><path
         id="path338"
         style="fill:none;stroke:#fbc807;stroke-width:2.25999999;stroke-linecap:butt;stroke-linejoin:miter;stroke-miterlimit:4;stroke-dasharray:none;stroke-opacity:1"
         d="m 199.402,324.844 c 0.258,0.273 0.512,0.605 0.774,0.918 l -58.672,39.433 -1.93,-2.91 58.524,-39.426 c 0.511,0.676 0.754,1.282 1.304,1.926 z" /><path
         id="path340"
         style="fill:#fbc807;fill-opacity:1;fill-rule:nonzero;stroke:none"
         d="m 244.988,291.359 51.707,-34.828 2.039,2.981 -51.89,34.851 c -0.457,-1.101 -1.211,-2.039 -1.856,-3.004" /><path
         id="path342"
         style="fill:none;stroke:#fbc807;stroke-width:2.25999999;stroke-linecap:butt;stroke-linejoin:miter;stroke-miterlimit:4;stroke-dasharray:none;stroke-opacity:1"
         d="m 244.988,291.359 51.707,-34.828 2.039,2.981 -51.89,34.851 c -0.457,-1.101 -1.211,-2.039 -1.856,-3.004 z" /><path
         id="path344"
         style="fill:#fbc807;fill-opacity:1;fill-rule:nonzero;stroke:none"
         d="m 177.523,396.426 -3.105,-1.731 33.223,-62.3 c 1.082,0.664 2.093,1.171 3.125,1.668 l -33.243,62.363" /><path
         id="path346"
         style="fill:none;stroke:#fbc807;stroke-width:2.25999999;stroke-linecap:butt;stroke-linejoin:miter;stroke-miterlimit:4;stroke-dasharray:none;stroke-opacity:1"
         d="m 177.523,396.426 -3.105,-1.731 33.223,-62.3 c 1.082,0.664 2.093,1.171 3.125,1.668 z" /><path
         id="path348"
         style="fill:#fbc807;fill-opacity:1;fill-rule:nonzero;stroke:none"
         d="m 236.117,283.652 c -0.179,-0.066 -0.402,-0.183 -0.679,-0.312 -0.149,-0.188 -0.426,-0.188 -0.586,-0.332 -0.258,-0.125 -0.426,-0.125 -0.645,-0.274 v -0.058 l 29.234,-54.844 3.164,1.731 -29.238,54.839 c -0.179,-0.183 -0.441,-0.269 -0.644,-0.332 -0.184,-0.164 -0.328,-0.308 -0.606,-0.418" /><path
         id="path350"
         style="fill:none;stroke:#fbc807;stroke-width:2.25999999;stroke-linecap:butt;stroke-linejoin:miter;stroke-miterlimit:4;stroke-dasharray:none;stroke-opacity:1"
         d="m 236.117,283.652 c -0.179,-0.066 -0.402,-0.183 -0.679,-0.312 -0.149,-0.188 -0.426,-0.188 -0.586,-0.332 -0.258,-0.125 -0.426,-0.125 -0.645,-0.274 v -0.058 l 29.234,-54.844 3.164,1.731 -29.238,54.839 c -0.179,-0.183 -0.441,-0.269 -0.644,-0.332 -0.184,-0.164 -0.328,-0.308 -0.606,-0.418 z" /><path
         id="path352"
         style="fill:#fbc807;fill-opacity:1;fill-rule:nonzero;stroke:none"
         d="m 196.391,316.863 v 0.285 c 0.144,0.86 0.418,1.672 0.605,2.461 0.031,0.188 0.031,0.274 0.031,0.403 0.153,0.371 0.282,0.703 0.282,1.121 l -59.957,-12.879 59.957,-12.813 c -0.313,1.395 -0.645,2.832 -0.918,4.247" /><path
         id="path354"
         style="fill:none;stroke:#fbc807;stroke-width:0.75;stroke-linecap:butt;stroke-linejoin:miter;stroke-miterlimit:4;stroke-dasharray:none;stroke-opacity:1"
         d="m 196.391,316.863 v 0.285 c 0.144,0.86 0.418,1.672 0.605,2.461 0.031,0.188 0.031,0.274 0.031,0.403 0.153,0.371 0.282,0.703 0.282,1.121 l -59.957,-12.879 59.957,-12.813 c -0.313,1.395 -0.645,2.832 -0.918,4.247" /><path
         id="path356"
         style="fill:#fbc807;fill-opacity:1;fill-rule:nonzero;stroke:none"
         d="m 247.504,299.746 c -0.113,-0.105 -0.113,-0.176 -0.113,-0.273 -0.036,-0.86 -0.309,-1.707 -0.532,-2.586 v -0.278 c -0.148,-0.457 -0.254,-0.75 -0.328,-1.121 l 59.957,12.754 -59.957,12.844 c 0.328,-1.309 0.66,-2.734 0.918,-4.27" /><path
         id="path358"
         style="fill:none;stroke:#fbc807;stroke-width:0.75;stroke-linecap:butt;stroke-linejoin:miter;stroke-miterlimit:4;stroke-dasharray:none;stroke-opacity:1"
         d="m 247.504,299.746 c -0.113,-0.105 -0.113,-0.176 -0.113,-0.273 -0.036,-0.86 -0.309,-1.707 -0.532,-2.586 v -0.278 c -0.148,-0.457 -0.254,-0.75 -0.328,-1.121 l 59.957,12.754 -59.957,12.844 c 0.328,-1.309 0.66,-2.734 0.918,-4.27" /><path
         id="path360"
         style="fill:#fbc807;fill-opacity:1;fill-rule:nonzero;stroke:none"
         d="m 222.328,336.492 c -15.601,0 -28.316,-12.625 -28.316,-28.238 0,-15.461 12.715,-28.117 28.316,-28.117 15.672,0 28.317,12.656 28.317,28.117 0,15.613 -12.645,28.238 -28.317,28.238 m 0,-5.437 c 12.621,0 22.895,-10.235 22.895,-22.801 0,-12.52 -10.274,-22.68 -22.895,-22.68 -12.629,0 -22.894,10.16 -22.894,22.68 0,12.566 10.265,22.801 22.894,22.801" /><path
         id="path362"
         style="fill:#fbc807;fill-opacity:1;fill-rule:nonzero;stroke:none"
         d="m 222.328,319.785 c -6.324,0 -11.617,-5.183 -11.617,-11.582 0,-6.133 5.293,-11.426 11.617,-11.426 6.445,0 11.496,5.293 11.496,11.426 0,6.399 -5.051,11.582 -11.496,11.582" /><path
         id="path364"
         style="fill:none;stroke:#fbc807;stroke-width:0.38999999;stroke-linecap:butt;stroke-linejoin:miter;stroke-miterlimit:4;stroke-dasharray:none;stroke-opacity:1"
         d="m 222.328,319.785 c -6.324,0 -11.617,-5.183 -11.617,-11.582 0,-6.133 5.293,-11.426 11.617,-11.426 6.445,0 11.496,5.293 11.496,11.426 0,6.399 -5.051,11.582 -11.496,11.582 z" /></g></g></svg>