<?xml version="1.0" encoding="UTF-8" standalone="no"?>
<svg
   xmlns:dc="http://purl.org/dc/elements/1.1/"
   xmlns:cc="http://creativecommons.org/ns#"
   xmlns:rdf="http://www.w3.org/1999/02/22-rdf-syntax-ns#"
   xmlns:svg="http://www.w3.org/2000/svg"
   xmlns="http://www.w3.org/2000/svg"
   viewBox="0 0 337.60001 76.90667"
   height="76.90667"
   width="337.60001"
   xml:space="preserve"
   id="svg2"
   version="1.1"><metadata
     id="metadata8"><rdf:RDF><cc:Work
         rdf:about=""><dc:format>image/svg+xml</dc:format><dc:type
           rdf:resource="http://purl.org/dc/dcmitype/StillImage" /></cc:Work></rdf:RDF></metadata><defs
     id="defs6" /><g
     transform="matrix(1.3333333,0,0,-1.3333333,0,76.906667)"
     id="g10"><g
       transform="scale(0.1)"
       id="g12"><path
         id="path14"
         style="fill:#1d2950;fill-opacity:1;fill-rule:nonzero;stroke:none"
         d="m 88.5898,18.2305 c 49.7232,0 65.8202,21.0937 65.8202,80.1172 0,61.9063 -18.246,79.7853 -65.8202,79.7853 H 66.4141 V 18.2305 Z M 0.226563,13.9531 29.5703,19.6484 V 177.051 l -29.343737,5.711 v 11.093 H 92.5195 c 65.1055,0 101.9455,-44.003 101.9455,-95.5073 0,-51.1407 -36.84,-95.49614 -101.9455,-95.49614 H 0.226563 V 13.9531" /><path
         id="path16"
         style="fill:#1d2950;fill-opacity:1;fill-rule:nonzero;stroke:none"
         d="m 218.848,13.9453 29.343,5.7031 V 177.059 l -29.343,5.714 v 11.102 h 161.679 l 7.516,-60.82 -7.516,-2.871 -28.609,46.875 -67.234,5 v -75.118 l 38.625,2.5 11.796,28.977 h 9.297 V 64.7148 h -9.297 l -11.796,27.1993 -38.625,2.1484 V 15.3594 l 77.246,4.289 30.41,55.8008 8.586,-2.8515 -9.297,-69.74614 H 218.848 V 13.9453" /><path
         id="path18"
         style="fill:#1d2950;fill-opacity:1;fill-rule:nonzero;stroke:none"
         d="m 577.496,120.918 h 25.008 c 44.359,0 55.711,8.984 55.711,48.672 0,40.371 -11.664,47.371 -49.039,47.371 h -31.68 z M 664.871,11.1797 C 633.191,95.2344 633.523,105.555 597.84,105.555 H 577.496 V 20.1836 l 32.359,-6.668 V 2.83984 H 507.453 V 13.5156 l 31.363,6.668 V 214.961 l -31.363,6.668 v 10.676 H 613.18 c 46.343,0 85.039,-21.348 85.039,-62.715 0,-35.684 -30.356,-52.344 -69.715,-58.008 v -0.676 c 22.676,-2.996 36.367,-10.664 51.375,-39.031 l 27.672,-51.6914 22.015,-6.668 V 2.83984 h -48.675 c -10.016,0 -13.688,2.00391 -16.02,8.33986" /><path
         id="path20"
         style="fill:#1d2950;fill-opacity:1;fill-rule:nonzero;stroke:none"
         d="m 890.602,97.6445 c 0,61.8675 -19.68,85.1285 -56.157,85.1285 -36.84,0 -55.824,-23.261 -55.824,-85.1285 0,-60.0859 20.399,-83.3476 55.824,-83.3476 34.344,0 56.157,23.2617 56.157,83.3476 m -152.036,0 c 0,50.4415 40.426,99.4645 95.879,99.4645 54.723,0 96.578,-49.023 96.578,-99.4645 C 931.023,47.207 890.602,0 834.445,0 778.273,0 738.566,47.207 738.566,97.6445" /><path
         id="path22"
         style="fill:#1d2950;fill-opacity:1;fill-rule:nonzero;stroke:none"
         d="m 995.313,14.2969 32.907,5.7109 V 181.707 l -33.622,-4.297 -28.258,-59.754 -8.582,2.539 5.363,73.66 h 166.699 l 5.73,-73.66 -9.31,-2.539 -27.9,59.754 -33.62,4.297 V 20.0078 l 32.91,-5.7109 V 2.85156 H 995.313 V 14.2969" /><path
         id="path24"
         style="fill:#1d2950;fill-opacity:1;fill-rule:nonzero;stroke:none"
         d="m 1162.58,14.2969 29.35,5.7109 V 176.699 l -29.35,5.731 v 11.425 h 91.95 V 182.43 l -25.76,-5.731 V 106.57 h 85.85 v 70.129 l -25.75,5.731 v 11.425 h 91.94 V 182.43 l -29.33,-5.731 V 20.0078 l 29.33,-5.7109 V 2.85156 h -91.94 V 14.2969 l 25.75,5.7109 v 71.1914 h -85.85 V 20.0078 l 25.76,-5.7109 V 2.85156 h -91.95 V 14.2969" /><path
         id="path26"
         style="fill:#1d2950;fill-opacity:1;fill-rule:nonzero;stroke:none"
         d="m 1434.87,17.5078 -6.44,-14.65624 h -12.16 l -6.8,71.19924 9.32,2.1484 c 23.24,-46.1601 40.77,-61.9023 69.01,-61.9023 22.9,0 38.28,12.1679 38.28,29.6953 0,20.0312 -9.3,28.2539 -49,41.8555 -44.37,15.3823 -62.59,29.6793 -62.59,60.0903 0,28.972 22.87,51.171 59.75,51.171 18.95,0 35.02,-6.816 44.32,-14.336 l 6.1,11.082 h 11.08 l 5.37,-59.375 -7.87,-2.148 c -21.1,38.301 -35.77,50.441 -59.75,50.441 -20.36,0 -32.53,-11.796 -32.53,-26.105 0,-17.879 6.07,-22.898 47.21,-36.473 36.49,-12.187 66.17,-29.0036 66.17,-64.0622 C 1554.34,23.9648 1528.94,0 1489.61,0 c -25.4,0 -44.36,8.21094 -54.74,17.5078" /><path
         id="path28"
         style="fill:#1d2950;fill-opacity:1;fill-rule:nonzero;stroke:none"
         d="m 1575.92,98.3594 c 0,51.5036 40.42,97.6366 92.3,97.6366 23.24,0 37.56,-8.215 47.21,-15.363 l 6.09,13.215 h 10 l 8.23,-71.868 -8.23,-2.148 c -25.05,47.922 -37.91,61.875 -63.3,61.875 -32.56,0 -50.79,-20.73 -50.79,-86.2187 0,-58.6719 19.31,-79.7656 56.85,-79.7656 26.13,0 46.16,15.3789 58.7,33.9921 l 10.38,-5.7304 c -15.4,-26.1133 -38.64,-43.273462 -74.06,-43.273462 -53.31,0 -93.38,43.644562 -93.38,97.648462" /><path
         id="path30"
         style="fill:#1d2950;fill-opacity:1;fill-rule:nonzero;stroke:none"
         d="m 1768.57,14.2969 29.33,5.7109 V 176.699 l -29.33,5.731 v 11.425 h 91.92 V 182.43 l -25.76,-5.731 V 106.57 h 85.85 v 70.129 l -25.76,5.731 v 11.425 h 91.95 V 182.43 l -29.34,-5.731 V 20.0078 l 29.34,-5.7109 V 2.85156 h -91.95 V 14.2969 l 25.76,5.7109 v 71.1914 h -85.85 V 20.0078 l 25.76,-5.7109 V 2.85156 h -91.92 V 14.2969" /><path
         id="path32"
         style="fill:#1d2950;fill-opacity:1;fill-rule:nonzero;stroke:none"
         d="m 2016.92,14.2969 31.1,5.7109 V 176.699 l -31.1,5.731 v 11.425 h 99.09 V 182.43 l -31.12,-5.731 V 20.0078 l 31.12,-5.7109 V 2.85156 h -99.09 V 14.2969" /><path
         id="path34"
         style="fill:#1d2950;fill-opacity:1;fill-rule:nonzero;stroke:none"
         d="m 2145.75,14.2969 29.32,5.7109 V 176.699 l -29.32,5.731 v 11.425 h 96.58 V 182.43 l -30.41,-5.731 V 15.7305 l 60.82,5.0195 32.91,59.3672 8.93,-2.5195 -11.45,-74.74614 H 2145.75 V 14.2969" /><path
         id="path36"
         style="fill:#1d2950;fill-opacity:1;fill-rule:nonzero;stroke:none"
         d="m 2426.06,18.2305 c 49.72,0 65.83,21.0937 65.83,80.1172 0,61.9063 -18.24,79.7853 -65.83,79.7853 h -22.19 V 18.2305 Z m -88.35,-4.2774 29.35,5.6953 V 177.051 l -29.35,5.711 v 11.093 h 92.3 c 65.08,0 101.94,-44.003 101.94,-95.5073 0,-51.1407 -36.86,-95.49614 -101.94,-95.49614 h -92.3 V 13.9531" /><path
         id="path38"
         style="fill:#1d2950;fill-opacity:1;fill-rule:nonzero;stroke:none"
         d="m 0,357.992 31.3477,6.656 v 194.77 L 0,566.09 v 10.676 h 179.762 l 8.011,-64.387 -7.019,-1.633 -33.004,49.352 -77.7031,5.992 v -95.715 l 42.0191,2.66 13.672,33.684 h 7.992 v -81.364 h -7.992 l -13.672,31 -42.0191,2.333 v -99.719 l 90.0311,5.035 35.703,60.027 7.996,-1.687 -9.996,-75.024 H 0 v 10.672" /><path
         id="path40"
         style="fill:#1d2950;fill-opacity:1;fill-rule:nonzero;stroke:none"
         d="m 311.707,362.691 c 49.719,0 65.813,21.114 65.813,80.11 0,61.926 -18.227,79.785 -65.813,79.785 H 289.523 V 362.691 Z m -88.371,-4.285 29.348,5.715 v 157.402 l -29.348,5.692 v 11.14 h 92.301 c 65.121,0 101.941,-44.031 101.941,-95.554 0,-51.137 -36.82,-95.492 -101.941,-95.492 h -92.301 v 11.097" /><path
         id="path42"
         style="fill:#1d2950;fill-opacity:1;fill-rule:nonzero;stroke:none"
         d="m 441.789,358.754 29.32,5.734 v 156.664 l -29.32,5.731 v 11.465 h 71.18 l 54.004,-132.723 52.242,132.723 h 74.765 v -11.465 l -29.339,-5.731 V 364.488 l 29.339,-5.734 v -11.43 h -89.8 v 11.43 l 23.25,5.734 V 513.285 L 562.324,356.254 h -10.711 l -67.269,157.031 7.535,-148.797 23.957,-5.734 v -11.43 h -74.047 v 11.43" /><path
         id="path44"
         style="fill:#1d2950;fill-opacity:1;fill-rule:nonzero;stroke:none"
         d="m 870.383,442.113 c 0,61.887 -19.664,85.114 -56.156,85.114 -36.844,0 -55.805,-23.227 -55.805,-85.114 0,-60.105 20.379,-83.347 55.805,-83.347 34.324,0 56.156,23.242 56.156,83.347 m -152,0 c 0,50.442 40.402,99.446 95.844,99.446 54.718,0 96.574,-49.004 96.574,-99.446 0,-50.437 -40.418,-97.668 -96.574,-97.668 -56.172,0 -95.844,47.231 -95.844,97.668" /><path
         id="path46"
         style="fill:#1d2950;fill-opacity:1;fill-rule:nonzero;stroke:none"
         d="m 977.922,512.93 8.23,-148.453 30.388,-5.735 v -11.429 h -81.544 v 11.429 l 29.348,5.735 V 521.16 l -29.348,5.735 v 11.445 h 70.124 l 99.81,-130.57 -7.16,113.39 -29.68,5.735 v 11.445 h 78.66 v -11.445 l -27.52,-5.735 V 344.813 h -10 L 977.922,512.93" /><path
         id="path48"
         style="fill:#1d2950;fill-opacity:1;fill-rule:nonzero;stroke:none"
         d="m 1264.04,362.691 c 49.71,0 65.82,21.114 65.82,80.11 0,61.926 -18.24,79.785 -65.82,79.785 h -22.17 V 362.691 Z m -88.36,-4.285 29.35,5.715 v 157.402 l -29.35,5.692 v 11.14 h 92.3 c 65.1,0 101.96,-44.031 101.96,-95.554 0,-51.137 -36.86,-95.492 -101.96,-95.492 h -92.3 v 11.097" /></g></g></svg>