<svg xmlns="http://www.w3.org/2000/svg" width="20" height="20" viewBox="0 0 20 20">
  <defs>
    <style>
      .cls-1 {
        fill: #758d1b;
        fill-rule: evenodd;
      }
    </style>
  </defs>
  <path id="warning_alert.svg" class="cls-1" d="M623,319a10,10,0,1,0,10,10A9.995,9.995,0,0,0,623,319Zm0,18.438A8.438,8.438,0,1,1,631.438,329,8.433,8.433,0,0,1,623,337.438Zm0-13.4a0.782,0.782,0,0,0-.781.782v5.03a0.781,0.781,0,1,0,1.562,0v-5.03A0.782,0.782,0,0,0,623,324.034Zm0,7.55a1.055,1.055,0,1,1-1.055,1.055A1.056,1.056,0,0,1,623,331.584Z" transform="translate(-613 -319)"/>
</svg>
